<svg width="22" height="24" viewBox="0 0 22 24" fill="none" xmlns="http://www.w3.org/2000/svg">
<path d="M7.5 17.25C6.68333 17.25 5.99306 16.9681 5.42917 16.4042C4.86528 15.8403 4.58333 15.15 4.58333 14.3333C4.58333 13.5167 4.86528 12.8264 5.42917 12.2625C5.99306 11.6986 6.68333 11.4167 7.5 11.4167C8.31667 11.4167 9.00694 11.6986 9.57083 12.2625C10.1347 12.8264 10.4167 13.5167 10.4167 14.3333C10.4167 15.15 10.1347 15.8403 9.57083 16.4042C9.00694 16.9681 8.31667 17.25 7.5 17.25ZM2.83333 23.6667C2.19167 23.6667 1.64256 23.4384 1.186 22.9818C0.729444 22.5253 0.500778 21.9758 0.5 21.3333V5C0.5 4.35833 0.728667 3.80922 1.186 3.35267C1.64333 2.89611 2.19244 2.66744 2.83333 2.66667H4V0.333332H6.33333V2.66667H15.6667V0.333332H18V2.66667H19.1667C19.8083 2.66667 20.3578 2.89533 20.8152 3.35267C21.2725 3.81 21.5008 4.35911 21.5 5V21.3333C21.5 21.975 21.2717 22.5245 20.8152 22.9818C20.3586 23.4392 19.8091 23.6674 19.1667 23.6667H2.83333ZM2.83333 21.3333H19.1667V9.66667H2.83333V21.3333ZM2.83333 7.33333H19.1667V5H2.83333V7.33333Z" fill="#FFFEFC"/>
</svg>
