<svg width="26" height="26" viewBox="0 0 26 26" fill="none" xmlns="http://www.w3.org/2000/svg">
<rect width="26" height="26" rx="6" fill="#6A6CE0"/>
<g clip-path="url(#clip0_876_75)">
<path d="M18.8333 18.8334L17.6666 17.6668M12.7083 18.2501C13.436 18.2501 14.1567 18.1067 14.829 17.8282C15.5013 17.5498 16.1123 17.1416 16.6268 16.627C17.1414 16.1124 17.5496 15.5015 17.8281 14.8291C18.1066 14.1568 18.25 13.4362 18.25 12.7084C18.25 11.9807 18.1066 11.2601 17.8281 10.5877C17.5496 9.91537 17.1414 9.30446 16.6268 8.78987C16.1123 8.27527 15.5013 7.86708 14.829 7.58858C14.1567 7.31009 13.436 7.16675 12.7083 7.16675C11.2386 7.16675 9.82901 7.7506 8.78974 8.78987C7.75048 9.82913 7.16663 11.2387 7.16663 12.7084C7.16663 14.1782 7.75048 15.5877 8.78974 16.627C9.82901 17.6662 11.2386 18.2501 12.7083 18.2501V18.2501Z" stroke="#FFFEFC" stroke-width="1.5" stroke-linecap="round" stroke-linejoin="round"/>
</g>
<defs>
<clipPath id="clip0_876_75">
<rect width="14" height="14" fill="white" transform="translate(6 6)"/>
</clipPath>
</defs>
</svg>
