<svg width="24" height="24" viewBox="0 0 24 24" fill="none" xmlns="http://www.w3.org/2000/svg">
<path fill-rule="evenodd" clip-rule="evenodd" d="M3.92552 3.91383C8.35302 -0.507835 15.5513 -0.461168 20.0057 3.99433C24.4624 8.451 24.509 15.6528 20.0804 20.0803C15.6529 24.5078 8.45102 24.4623 3.99435 20.0057C2.74077 18.7572 1.7936 17.2353 1.22722 15.5592C0.660838 13.8831 0.490649 12.0986 0.730016 10.3457C0.761422 10.1156 0.88293 9.90746 1.06781 9.76699C1.25269 9.62653 1.4858 9.56526 1.71585 9.59666C1.9459 9.62807 2.15406 9.74958 2.29452 9.93446C2.43499 10.1193 2.49626 10.3524 2.46485 10.5825C2.26166 12.068 2.40571 13.5804 2.88567 15.0009C3.36564 16.4213 4.16845 17.7112 5.23102 18.769C9.01685 22.5537 15.1103 22.5758 18.8437 18.8437C22.5758 15.1103 22.5537 9.01683 18.769 5.231C14.9855 1.44866 8.89552 1.42417 5.16218 5.15167L6.03485 5.15516C6.14976 5.1557 6.26343 5.17886 6.36939 5.22333C6.47534 5.2678 6.5715 5.3327 6.65237 5.41433C6.73324 5.49596 6.79725 5.59272 6.84072 5.69909C6.8842 5.80545 6.9063 5.91934 6.90577 6.03425C6.90523 6.14915 6.88207 6.26283 6.8376 6.36879C6.79313 6.47474 6.72823 6.5709 6.6466 6.65177C6.56497 6.73264 6.46821 6.79664 6.36184 6.84012C6.25548 6.8836 6.14159 6.9057 6.02668 6.90516L3.05635 6.89116C2.8257 6.88994 2.60486 6.79769 2.44188 6.63448C2.27889 6.47128 2.18694 6.25032 2.18602 6.01966L2.17085 3.05166C2.17024 2.93676 2.19226 2.82286 2.23567 2.71646C2.27908 2.61007 2.34301 2.51326 2.42383 2.43158C2.50465 2.3499 2.60076 2.28493 2.70669 2.24039C2.81262 2.19585 2.92628 2.17261 3.04118 2.172C3.15609 2.17139 3.26999 2.19341 3.37639 2.23682C3.48278 2.28022 3.57958 2.34416 3.66127 2.42498C3.74295 2.5058 3.80792 2.60191 3.85246 2.70784C3.897 2.81376 3.92024 2.92742 3.92085 3.04233L3.92552 3.91383ZM11.9988 6.45716C12.2309 6.45716 12.4535 6.54935 12.6176 6.71345C12.7817 6.87754 12.8738 7.1001 12.8738 7.33216V11.6372L15.535 14.2972C15.6186 14.3778 15.6853 14.4744 15.7312 14.5811C15.7771 14.6878 15.8013 14.8026 15.8024 14.9188C15.8035 15.035 15.7814 15.1502 15.7374 15.2578C15.6935 15.3653 15.6286 15.4631 15.5464 15.5453C15.4643 15.6274 15.3667 15.6925 15.2592 15.7365C15.1516 15.7806 15.0364 15.8027 14.9202 15.8018C14.8041 15.8008 14.6892 15.7768 14.5825 15.731C14.4757 15.6851 14.3791 15.6185 14.2984 15.535L11.125 12.3617V7.33333C11.125 7.10127 11.2172 6.87871 11.3813 6.71461C11.5454 6.55052 11.768 6.45833 12 6.45833" fill="#FFFEFC"/>
</svg>
